<svg xmlns="http://www.w3.org/2000/svg" viewBox="0 0 750 500"><g id="freepik--background-complete--inject-31"><path d="M669.85,129.64H543.21V43H669.85Zm-125.64-1H668.85V44H544.21Z" style="fill:#ebebeb"></path><path d="M553.11,48.58a2.52,2.52,0,1,1-2.52-2.52A2.52,2.52,0,0,1,553.11,48.58Z" style="fill:#a6a6a6"></path><path d="M563.4,48.58a2.52,2.52,0,1,1-2.52-2.52A2.52,2.52,0,0,1,563.4,48.58Z" style="fill:#ebebeb"></path><path d="M573.69,48.58a2.52,2.52,0,1,1-2.52-2.52A2.51,2.51,0,0,1,573.69,48.58Z" style="fill:#CFD8DC"></path><rect x="543.71" y="53.02" width="125.64" height="1" style="fill:#ebebeb"></rect><path d="M79.36,84.6a3.16,3.16,0,0,1,3.3,0l.85.49.88.44a3.16,3.16,0,0,1,1.84,2.73l.13,4.06,13.23-.41-.13-4.06A3.18,3.18,0,0,1,101.13,85a19.22,19.22,0,0,0,1.67-1,3.15,3.15,0,0,1,3.29-.21l3.57,1.91L115.92,74l-3.57-1.91a3.14,3.14,0,0,1-1.64-2.86,18.44,18.44,0,0,0-.07-2,3.15,3.15,0,0,1,1.46-3l3.45-2.15-7-11.25-3.47,2.15a3.12,3.12,0,0,1-3.28,0c-.28-.17-.56-.33-.85-.48s-.58-.3-.87-.44a3.17,3.17,0,0,1-1.85-2.74l-.12-4.07-13.23.41L85,49.77a3.14,3.14,0,0,1-1.65,2.86,19.66,19.66,0,0,0-1.69,1,3.13,3.13,0,0,1-3.29.21L74.82,52,68.56,63.64l3.57,1.92a3.16,3.16,0,0,1,1.65,2.85,16.25,16.25,0,0,0,.06,2,3.14,3.14,0,0,1-1.46,3l-3.45,2.14,7,11.25Zm3.32-20.9a10.84,10.84,0,1,1,4.44,14.68A10.85,10.85,0,0,1,82.68,63.7Z" style="fill:#ebebeb"></path><path d="M674.24,330.54a2.19,2.19,0,0,1,2-1.08l.69,0,.68,0a2.19,2.19,0,0,1,2,1.07l1.43,2.47,8-4.63-1.42-2.47a2.19,2.19,0,0,1,.08-2.31q.38-.58.69-1.2a2.21,2.21,0,0,1,2-1.22h2.84V311.9h-2.84a2.21,2.21,0,0,1-2-1.22q-.32-.62-.69-1.2a2.19,2.19,0,0,1-.08-2.31l1.42-2.47-8-4.63-1.43,2.47a2.22,2.22,0,0,1-2,1.08l-.68,0-.69,0a2.21,2.21,0,0,1-2-1.08l-1.42-2.47-8,4.63,1.42,2.46a2.19,2.19,0,0,1-.08,2.31,13,13,0,0,0-.69,1.21,2.21,2.21,0,0,1-2,1.22h-2.84v9.27h2.84a2.21,2.21,0,0,1,2,1.22,11.7,11.7,0,0,0,.69,1.2,2.21,2.21,0,0,1,.08,2.32l-1.42,2.46,8,4.63Zm-4.88-14a7.6,7.6,0,1,1,7.61,7.59A7.61,7.61,0,0,1,669.36,316.54Z" style="fill:#ebebeb"></path><path d="M119.25,96.3a2.23,2.23,0,0,1,1.08,2c0,.23,0,.45,0,.68s0,.46,0,.69a2.21,2.21,0,0,1-1.08,2l-2.47,1.42,4.64,8,2.47-1.42a2.19,2.19,0,0,1,2.31.08,12.71,12.71,0,0,0,1.19.69,2.21,2.21,0,0,1,1.22,2v2.84h9.28v-2.84a2.21,2.21,0,0,1,1.22-2,12.71,12.71,0,0,0,1.19-.69,2.21,2.21,0,0,1,2.32-.08l2.46,1.42,4.64-8-2.48-1.43a2.17,2.17,0,0,1-1.07-2c0-.23,0-.46,0-.69s0-.45,0-.68a2.2,2.2,0,0,1,1.08-2l2.47-1.42-4.64-8-2.46,1.42a2.19,2.19,0,0,1-2.31-.08q-.59-.37-1.2-.69a2.21,2.21,0,0,1-1.22-2V82.7h-9.28v2.84a2.21,2.21,0,0,1-1.22,2q-.61.31-1.2.69a2.19,2.19,0,0,1-2.31.08l-2.46-1.42-4.64,8Zm14-4.87a7.6,7.6,0,1,1-7.6,7.6A7.61,7.61,0,0,1,133.25,91.43Z" style="fill:#ebebeb"></path><polygon points="665.66 305.52 593.09 294.07 607.79 200.91 661.68 209.41 677.57 230.11 665.66 305.52" style="fill:#ebebeb"></polygon><polygon points="661.68 209.41 677.57 230.11 658.88 227.16 661.68 209.41" style="fill:#dbdbdb"></polygon><path d="M657.17,281,633,277.49l-24.35-3.65-.4-.06.06-.41,6.14-39.64.07-.5.5.08c16.14,2.58,32.29,5.09,48.42,7.75l.35.05,0,.35-3.28,19.88Zm0,0,2.92-19.93L663,241.35l.3.41c-16.17-2.42-32.31-5-48.47-7.46l.57-.42-6.31,39.62-.34-.47Z" style="fill:#fff"></path><path d="M613.39,243.71c4.07.43,8.12,1,12.17,1.52s8.09,1.2,12.13,1.79,8.07,1.3,12.1,2l6,1.08c2,.4,4,.77,6,1.2-2-.21-4.06-.48-6.1-.71l-6.07-.81c-4-.56-8.09-1.2-12.13-1.79s-8.07-1.3-12.09-2S617.4,244.55,613.39,243.71Z" style="fill:#fff"></path><path d="M639.17,237.61c-.31,3.33-.74,6.65-1.18,10s-.93,6.63-1.44,9.93-1.06,6.6-1.66,9.89l-.92,4.93c-.34,1.64-.65,3.29-1,4.92.15-1.67.36-3.33.54-5l.64-5c.42-3.32.93-6.62,1.44-9.93s1.06-6.6,1.67-9.89S638.45,240.88,639.17,237.61Z" style="fill:#fff"></path><path d="M611.84,253.62c4.07.43,8.12,1,12.17,1.52s8.08,1.2,12.13,1.79,8.07,1.3,12.09,2l6,1.09c2,.4,4,.77,6,1.19-2-.2-4.06-.47-6.09-.7l-6.08-.82c-4.05-.55-8.08-1.19-12.13-1.78s-8.07-1.31-12.09-2S615.84,254.46,611.84,253.62Z" style="fill:#fff"></path><path d="M610.28,263.53c4.07.43,8.12,1,12.17,1.52s8.09,1.19,12.13,1.79,8.07,1.3,12.1,2l6,1.09c2,.4,4,.76,6,1.19-2-.2-4.07-.47-6.1-.71l-6.07-.81c-4-.55-8.09-1.19-12.13-1.79s-8.07-1.3-12.1-2S614.29,264.37,610.28,263.53Z" style="fill:#fff"></path><polygon points="145.97 168.23 90.38 198.86 51.06 127.5 92.34 104.75 114.15 110.47 145.97 168.23" style="fill:#ebebeb"></polygon><polygon points="92.34 104.75 114.15 110.47 99.83 118.35 92.34 104.75" style="fill:#dbdbdb"></polygon><path d="M127.21,156l-18.34,10.4L90.32,176.86l-.36.2-.2-.36L72.94,146.4l-.25-.44.44-.24c12.39-6.78,24.74-13.63,37.16-20.35l.31-.17.17.31,8.28,15.32Zm0,0-8.59-15.14-8.47-15,.48.14c-12.3,6.93-24.68,13.73-37,20.6l.2-.68L90.48,176.3l-.56-.16,18.54-10Z" style="fill:#fff"></path><path d="M77.56,153.74c3-1.89,6-3.68,9.09-5.45s6.13-3.51,9.21-5.22,6.2-3.39,9.33-5l4.7-2.44c1.59-.78,3.16-1.59,4.76-2.34-1.49.95-3,1.85-4.52,2.77l-4.57,2.68c-3,1.79-6.13,3.51-9.21,5.22s-6.2,3.39-9.33,5S80.75,152.22,77.56,153.74Z" style="fill:#fff"></path><path d="M91.92,135.92c1.57,2.43,3,4.91,4.52,7.4s2.88,5,4.29,7.53,2.77,5.07,4.09,7.64l2,3.86c.62,1.3,1.28,2.59,1.88,3.91-.8-1.21-1.54-2.45-2.31-3.67l-2.22-3.73c-1.47-2.48-2.88-5-4.29-7.53s-2.77-5.07-4.08-7.64S93.13,138.55,91.92,135.92Z" style="fill:#fff"></path><path d="M81.75,161.33c3-1.89,6-3.68,9.08-5.46s6.14-3.5,9.22-5.22,6.19-3.39,9.33-5l4.7-2.43c1.59-.78,3.16-1.59,4.76-2.35-1.5,1-3,1.85-4.52,2.78l-4.57,2.68c-3,1.78-6.13,3.5-9.22,5.22s-6.19,3.39-9.33,5S84.94,159.8,81.75,161.33Z" style="fill:#fff"></path><path d="M85.93,168.91c3-1.88,6-3.68,9.09-5.45s6.13-3.51,9.22-5.22,6.19-3.39,9.32-5l4.71-2.44c1.58-.78,3.15-1.59,4.75-2.34-1.49.95-3,1.85-4.51,2.77l-4.57,2.68c-3,1.79-6.13,3.51-9.22,5.22s-6.19,3.39-9.33,5S89.13,167.39,85.93,168.91Z" style="fill:#fff"></path></g><g id="freepik--Device--inject-31"><rect x="138.36" y="63.91" width="471.59" height="315.46" style="fill:#ebebeb"></rect><rect x="141.79" y="67.76" width="464.73" height="307.76" style="fill:#263238"></rect><rect x="76.94" y="403.03" width="594.43" height="21.65" style="fill:#dbdbdb"></rect><polygon points="76.94 403.03 138.37 379.37 609.95 379.37 671.38 403.03 76.94 403.03" style="fill:#ebebeb"></polygon><polygon points="143.85 394.64 183.49 379.37 564.83 379.37 604.47 394.64 143.85 394.64" style="fill:#263238"></polygon><rect x="168.06" y="91.14" width="412.21" height="261" style="fill:#fff"></rect><rect x="168.06" y="91.14" width="412.21" height="10.04" style="fill:#455a64"></rect><path d="M176.25,96.16A2.13,2.13,0,1,1,174.12,94,2.13,2.13,0,0,1,176.25,96.16Z" style="fill:#c7c7c7"></path><path d="M184.93,96.16A2.13,2.13,0,1,1,182.8,94,2.13,2.13,0,0,1,184.93,96.16Z" style="fill:#fff"></path><path d="M193.61,96.16A2.13,2.13,0,1,1,191.48,94,2.13,2.13,0,0,1,193.61,96.16Z" style="fill:#CFD8DC"></path></g><g id="freepik--Screens--inject-31"><rect x="159.57" y="99.76" width="412.21" height="261" style="fill:#fff"></rect><path d="M572,361H159.32V99.51H572Zm-412.21-.5H571.53V100H159.82Z" style="fill:#263238"></path><rect x="159.57" y="99.76" width="412.21" height="10.04" style="fill:#455a64"></rect><path d="M167.77,104.78a2.13,2.13,0,1,1-2.13-2.12A2.13,2.13,0,0,1,167.77,104.78Z" style="fill:#c7c7c7"></path><path d="M176.45,104.78a2.13,2.13,0,1,1-2.13-2.12A2.13,2.13,0,0,1,176.45,104.78Z" style="fill:#fff"></path><path d="M185.13,104.78a2.13,2.13,0,1,1-2.13-2.12A2.13,2.13,0,0,1,185.13,104.78Z" style="fill:#CFD8DC"></path><rect x="159.57" y="109.81" width="412.21" height="23.79" style="fill:#CFD8DC"></rect><rect x="159.57" y="133.6" width="412.21" height="16.87" style="fill:#ebebeb"></rect><rect x="164.48" y="115.11" width="7.99" height="7.99" style="fill:#fff"></rect><rect x="178.76" y="115.11" width="84.85" height="3.99" style="fill:#fff"></rect><rect x="164.48" y="136.04" width="7.99" height="7.99" style="fill:#dbdbdb"></rect><rect x="168.2" y="140.03" width="7.99" height="7.99" style="fill:#fff"></rect><rect x="191.62" y="136.04" width="84.85" height="3.99" style="fill:#fff"></rect><rect x="191.62" y="144.03" width="16.7" height="3.99" style="fill:#fff"></rect><rect x="214.33" y="144.03" width="16.7" height="3.99" style="fill:#fff"></rect><rect x="237.05" y="144.03" width="16.7" height="3.99" style="fill:#fff"></rect><rect x="259.77" y="144.03" width="16.7" height="3.99" style="fill:#fff"></rect><rect x="282.57" y="136.04" width="9.14" height="3.99" style="fill:#fff"></rect><rect x="282.57" y="144.03" width="9.14" height="3.99" style="fill:#fff"></rect><rect x="299.29" y="136.04" width="4.57" height="3.99" style="fill:#dbdbdb"></rect><rect x="299.29" y="144.03" width="4.57" height="3.99" style="fill:#dbdbdb"></rect><rect x="307.07" y="136.04" width="8.95" height="3.99" style="fill:#dbdbdb"></rect><rect x="307.07" y="144.03" width="8.95" height="3.99" style="fill:#dbdbdb"></rect><rect x="320.29" y="136.04" width="65.45" height="3.99" style="fill:#dbdbdb"></rect><rect x="320.29" y="144.03" width="65.45" height="3.99" style="fill:#dbdbdb"></rect><rect x="391.81" y="136.04" width="11.98" height="11.98" style="fill:#fff"></rect><rect x="410.17" y="136.04" width="11.98" height="11.98" style="fill:#fff"></rect><rect x="428.54" y="136.04" width="11.98" height="11.98" style="fill:#fff"></rect><rect x="446.9" y="136.04" width="11.98" height="11.98" style="fill:#fff"></rect><rect x="465.27" y="136.04" width="11.98" height="11.98" style="fill:#fff"></rect><rect x="551.91" y="136.04" width="11.98" height="2.36" style="fill:#fff"></rect><rect x="551.91" y="140.85" width="11.98" height="2.36" style="fill:#fff"></rect><rect x="551.91" y="145.66" width="11.98" height="2.36" style="fill:#fff"></rect><rect x="381.79" y="202.04" width="167.46" height="12.89" style="fill:#CFD8DC"></rect><rect x="507.39" y="202.04" width="41.86" height="12.89" style="fill:#fff;opacity:0.30000000000000004"></rect><rect x="381.79" y="214.94" width="167.46" height="77.37" style="fill:#dbdbdb"></rect><rect x="507.39" y="214.94" width="41.86" height="77.37" style="fill:#ebebeb"></rect><rect x="381.79" y="305.2" width="167.46" height="12.89" style="fill:#CFD8DC"></rect><rect x="507.39" y="305.2" width="41.86" height="12.89" style="opacity:0.1"></rect><rect x="381.79" y="318.09" width="167.46" height="25.79" style="fill:#CFD8DC;opacity:0.5"></rect><rect x="507.39" y="318.09" width="41.86" height="25.79" style="fill:#CFD8DC"></rect><rect x="159.57" y="150.46" width="12.89" height="210.3" style="fill:#CFD8DC;opacity:0.5"></rect><rect x="365.68" y="-42.75" width="12.89" height="399.31" transform="translate(215.21 529.04) rotate(-90)" style="fill:#CFD8DC;opacity:0.5"></rect><path d="M172.47,150.46a49.82,49.82,0,0,1,.37,6.45,48.11,48.11,0,0,1-.37,6.45,48.12,48.12,0,0,1-.38-6.45A49.84,49.84,0,0,1,172.47,150.46Z" style="fill:#CFD8DC"></path><path d="M214.33,150.46a54.93,54.93,0,0,1,0,12.9,56.4,56.4,0,0,1,0-12.9Z" style="fill:#CFD8DC"></path><path d="M256.2,150.46a49.82,49.82,0,0,1,.37,6.45,48.11,48.11,0,0,1-.37,6.45,48.12,48.12,0,0,1-.38-6.45A49.84,49.84,0,0,1,256.2,150.46Z" style="fill:#CFD8DC"></path><path d="M298.06,150.46a54.93,54.93,0,0,1,0,12.9,56.4,56.4,0,0,1,0-12.9Z" style="fill:#CFD8DC"></path><path d="M339.93,150.46a56.4,56.4,0,0,1,0,12.9,48.12,48.12,0,0,1-.38-6.45A49.84,49.84,0,0,1,339.93,150.46Z" style="fill:#CFD8DC"></path><path d="M381.79,150.46a54.93,54.93,0,0,1,0,12.9,56.4,56.4,0,0,1,0-12.9Z" style="fill:#CFD8DC"></path><path d="M423.66,150.46a56.4,56.4,0,0,1,0,12.9,54.93,54.93,0,0,1,0-12.9Z" style="fill:#CFD8DC"></path><path d="M465.52,150.46a54.93,54.93,0,0,1,0,12.9,56.4,56.4,0,0,1,0-12.9Z" style="fill:#CFD8DC"></path><path d="M507.39,150.46a56.4,56.4,0,0,1,0,12.9,54.93,54.93,0,0,1,0-12.9Z" style="fill:#CFD8DC"></path><path d="M549.25,150.46a49.84,49.84,0,0,1,.38,6.45,48.12,48.12,0,0,1-.38,6.45,56.4,56.4,0,0,1,0-12.9Z" style="fill:#CFD8DC"></path><path d="M159.57,163.36A49.84,49.84,0,0,1,166,163a48.12,48.12,0,0,1,6.45.38,48.11,48.11,0,0,1-6.45.37A49.82,49.82,0,0,1,159.57,163.36Z" style="fill:#CFD8DC"></path><path d="M159.57,176.25a56.4,56.4,0,0,1,12.9,0,54.93,54.93,0,0,1-12.9,0Z" style="fill:#CFD8DC"></path><path d="M159.57,189.15a54.93,54.93,0,0,1,12.9,0,56.4,56.4,0,0,1-12.9,0Z" style="fill:#CFD8DC"></path><path d="M159.57,202a56.4,56.4,0,0,1,12.9,0,48.12,48.12,0,0,1-6.45.38A49.84,49.84,0,0,1,159.57,202Z" style="fill:#CFD8DC"></path><path d="M159.57,214.94a54.93,54.93,0,0,1,12.9,0,56.4,56.4,0,0,1-12.9,0Z" style="fill:#CFD8DC"></path><path d="M159.57,227.83a49.82,49.82,0,0,1,6.45-.37,48.11,48.11,0,0,1,6.45.37,48.12,48.12,0,0,1-6.45.38A49.84,49.84,0,0,1,159.57,227.83Z" style="fill:#CFD8DC"></path><path d="M159.57,240.73a54.93,54.93,0,0,1,12.9,0,56.4,56.4,0,0,1-12.9,0Z" style="fill:#CFD8DC"></path><path d="M159.57,253.62a54.93,54.93,0,0,1,12.9,0A48.11,48.11,0,0,1,166,254,49.82,49.82,0,0,1,159.57,253.62Z" style="fill:#CFD8DC"></path><path d="M159.57,266.51a56.4,56.4,0,0,1,12.9,0,54.93,54.93,0,0,1-12.9,0Z" style="fill:#CFD8DC"></path><path d="M159.57,279.41A49.84,49.84,0,0,1,166,279a48.12,48.12,0,0,1,6.45.38,48.11,48.11,0,0,1-6.45.37A49.82,49.82,0,0,1,159.57,279.41Z" style="fill:#CFD8DC"></path><path d="M159.57,292.3a56.4,56.4,0,0,1,12.9,0,54.93,54.93,0,0,1-12.9,0Z" style="fill:#CFD8DC"></path><path d="M159.57,305.2a54.93,54.93,0,0,1,12.9,0,56.4,56.4,0,0,1-12.9,0Z" style="fill:#CFD8DC"></path><path d="M159.57,318.09a56.4,56.4,0,0,1,12.9,0,48.12,48.12,0,0,1-6.45.38A49.84,49.84,0,0,1,159.57,318.09Z" style="fill:#CFD8DC"></path><path d="M159.57,331a54.93,54.93,0,0,1,12.9,0,56.4,56.4,0,0,1-12.9,0Z" style="fill:#CFD8DC"></path><path d="M159.57,343.88a49.82,49.82,0,0,1,6.45-.37,48.11,48.11,0,0,1,6.45.37,54.93,54.93,0,0,1-12.9,0Z" style="fill:#CFD8DC"></path><path d="M159.57,356.77a56.4,56.4,0,0,1,12.9,0,54.93,54.93,0,0,1-12.9,0Z" style="fill:#CFD8DC"></path><polygon points="214.33 163.36 214.52 188.03 214.58 212.71 214.71 262.06 214.58 311.41 214.52 336.08 214.33 360.76 214.15 336.08 214.08 311.41 213.96 262.06 214.09 212.71 214.15 188.03 214.33 163.36" style="fill:#ebebeb"></polygon><polygon points="256.2 163.36 256.38 188.03 256.45 212.71 256.57 262.06 256.45 311.41 256.38 336.08 256.2 360.76 256.01 336.08 255.95 311.41 255.82 262.06 255.95 212.71 256.02 188.03 256.2 163.36" style="fill:#ebebeb"></polygon><polygon points="298.06 163.36 298.25 188.03 298.31 212.71 298.44 262.06 298.31 311.41 298.25 336.08 298.06 360.76 297.88 336.08 297.81 311.41 297.69 262.06 297.81 212.71 297.88 188.03 298.06 163.36" style="fill:#ebebeb"></polygon><polygon points="339.93 163.36 340.11 188.03 340.18 212.71 340.3 262.06 340.18 311.41 340.11 336.08 339.93 360.76 339.74 336.08 339.68 311.41 339.55 262.06 339.68 212.71 339.75 188.03 339.93 163.36" style="fill:#ebebeb"></polygon><polygon points="381.79 163.36 381.98 188.03 382.04 212.71 382.17 262.06 382.04 311.41 381.98 336.08 381.79 360.76 381.61 336.08 381.54 311.41 381.42 262.06 381.54 212.71 381.61 188.03 381.79 163.36" style="fill:#ebebeb"></polygon><polygon points="423.66 163.36 423.84 188.03 423.91 212.71 424.03 262.06 423.91 311.41 423.84 336.08 423.66 360.76 423.47 336.08 423.41 311.41 423.28 262.06 423.41 212.71 423.48 188.03 423.66 163.36" style="fill:#ebebeb"></polygon><polygon points="465.52 163.36 465.7 188.03 465.77 212.71 465.9 262.06 465.77 311.41 465.71 336.08 465.52 360.76 465.34 336.08 465.27 311.41 465.15 262.06 465.27 212.71 465.34 188.03 465.52 163.36" style="fill:#ebebeb"></polygon><polygon points="507.39 163.36 507.57 188.03 507.63 212.71 507.76 262.06 507.64 311.41 507.57 336.08 507.39 360.76 507.2 336.08 507.14 311.41 507.01 262.06 507.14 212.71 507.2 188.03 507.39 163.36" style="fill:#ebebeb"></polygon><polygon points="549.25 163.36 549.43 188.03 549.5 212.71 549.63 262.06 549.5 311.41 549.43 336.08 549.25 360.76 549.07 336.08 549 311.41 548.88 262.06 549 212.71 549.07 188.03 549.25 163.36" style="fill:#ebebeb"></polygon><polygon points="172.31 163.36 222.25 163.18 272.18 163.11 372.05 162.99 471.92 163.11 521.85 163.18 571.78 163.36 521.85 163.54 471.92 163.61 372.05 163.73 272.18 163.61 222.25 163.54 172.31 163.36" style="fill:#ebebeb"></polygon><polygon points="172.31 176.25 222.25 176.07 272.18 176 372.05 175.88 471.92 176 521.85 176.07 571.78 176.25 521.85 176.44 471.92 176.5 372.05 176.63 272.18 176.5 222.25 176.44 172.31 176.25" style="fill:#ebebeb"></polygon><polygon points="172.31 189.15 222.25 188.97 272.18 188.9 372.05 188.77 471.92 188.9 521.85 188.96 571.78 189.15 521.85 189.33 471.92 189.4 372.05 189.52 272.18 189.4 222.25 189.33 172.31 189.15" style="fill:#ebebeb"></polygon><polygon points="172.31 202.04 222.25 201.86 272.18 201.79 372.05 201.67 471.92 201.79 521.85 201.86 571.78 202.04 521.85 202.23 471.92 202.29 372.05 202.42 272.18 202.29 222.25 202.22 172.31 202.04" style="fill:#ebebeb"></polygon><polygon points="172.31 214.94 222.25 214.75 272.18 214.69 372.05 214.56 471.92 214.69 521.85 214.75 571.78 214.94 521.85 215.12 471.92 215.19 372.05 215.31 272.18 215.19 222.25 215.12 172.31 214.94" style="fill:#ebebeb"></polygon><polygon points="172.31 227.83 222.25 227.65 272.18 227.58 372.05 227.46 471.92 227.58 521.85 227.65 571.78 227.83 521.85 228.01 471.92 228.08 372.05 228.21 272.18 228.08 222.25 228.01 172.31 227.83" style="fill:#ebebeb"></polygon><polygon points="172.31 240.72 222.25 240.54 272.18 240.48 372.05 240.35 471.92 240.48 521.85 240.54 571.78 240.72 521.85 240.91 471.92 240.97 372.05 241.1 272.18 240.97 222.25 240.91 172.31 240.72" style="fill:#ebebeb"></polygon><polygon points="172.31 253.62 222.25 253.44 272.18 253.37 372.05 253.25 471.92 253.37 521.85 253.44 571.78 253.62 521.85 253.8 471.92 253.87 372.05 253.99 272.18 253.87 222.25 253.8 172.31 253.62" style="fill:#ebebeb"></polygon><polygon points="172.31 266.51 222.25 266.33 272.18 266.27 372.05 266.14 471.92 266.26 521.85 266.33 571.78 266.51 521.85 266.7 471.92 266.76 372.05 266.89 272.18 266.76 222.25 266.7 172.31 266.51" style="fill:#ebebeb"></polygon><polygon points="172.31 279.41 222.25 279.23 272.18 279.16 372.05 279.03 471.92 279.16 521.85 279.23 571.78 279.41 521.85 279.59 471.92 279.66 372.05 279.78 272.18 279.66 222.25 279.59 172.31 279.41" style="fill:#ebebeb"></polygon><polygon points="172.31 292.3 222.25 292.12 272.18 292.05 372.05 291.93 471.92 292.05 521.85 292.12 571.78 292.3 521.85 292.49 471.92 292.55 372.05 292.68 272.18 292.55 222.25 292.49 172.31 292.3" style="fill:#ebebeb"></polygon><polygon points="172.31 305.2 222.25 305.01 272.18 304.95 372.05 304.82 471.92 304.95 521.85 305.01 571.78 305.2 521.85 305.38 471.92 305.45 372.05 305.57 272.18 305.45 222.25 305.38 172.31 305.2" style="fill:#ebebeb"></polygon><polygon points="172.31 318.09 222.25 317.91 272.18 317.84 372.05 317.72 471.92 317.84 521.85 317.91 571.78 318.09 521.85 318.27 471.92 318.34 372.05 318.47 272.18 318.34 222.25 318.27 172.31 318.09" style="fill:#ebebeb"></polygon><polygon points="172.31 330.99 222.25 330.8 272.18 330.74 372.05 330.61 471.92 330.74 521.85 330.8 571.78 330.99 521.85 331.17 471.92 331.24 372.05 331.36 272.18 331.24 222.25 331.17 172.31 330.99" style="fill:#ebebeb"></polygon><polygon points="172.31 343.88 222.25 343.7 272.18 343.63 372.05 343.51 471.92 343.63 521.85 343.7 571.78 343.88 521.85 344.06 471.92 344.13 372.05 344.25 272.18 344.13 222.25 344.06 172.31 343.88" style="fill:#ebebeb"></polygon><polygon points="172.31 356.77 222.25 356.59 272.18 356.53 372.05 356.4 471.92 356.53 521.85 356.59 571.78 356.77 521.85 356.96 471.92 357.02 372.05 357.15 272.18 357.02 222.25 356.96 172.31 356.77" style="fill:#ebebeb"></polygon><rect x="359.15" y="-23.4" width="25.79" height="399.31" transform="translate(195.79 548.3) rotate(-90)" style="fill:#CFD8DC"></rect><path d="M276,173.13c8-.22,16-.32,24-.49l24-.27c16-.17,32-.15,48.05-.24,16,.08,32,.07,48,.23l24,.28c8,.17,16,.26,24,.49-8,.23-16,.33-24,.49l-24,.28c-16,.16-32,.15-48,.23-16-.08-32-.07-48.05-.23l-24-.28C292.06,173.45,284.05,173.36,276,173.13Z" style="fill:#fff"></path><path d="M294.41,179.38c6.48-.23,12.95-.33,19.43-.49l19.43-.28c13-.16,25.9-.15,38.86-.23,12.95.07,25.9.07,38.85.23l19.43.28c6.48.16,13,.26,19.43.49-6.47.22-12.95.32-19.43.49l-19.43.27c-13,.16-25.9.16-38.85.23-13-.08-25.91-.06-38.86-.23l-19.43-.28C307.36,179.7,300.89,179.6,294.41,179.38Z" style="fill:#fff"></path><path d="M390.14,208.49q13.55-.59,27.08-.78c9-.16,18.06-.2,27.09-.22s18.05.06,27.08.22,18.06.39,27.08.78q-13.53.58-27.08.78c-9,.16-18.06.2-27.08.22s-18.06-.06-27.09-.22S399.17,208.88,390.14,208.49Z" style="fill:#fff"></path><path d="M513.65,208.49a67,67,0,0,1,7.16-.78c2.38-.16,4.77-.2,7.15-.22s4.78.06,7.16.22a64.47,64.47,0,0,1,7.16.78,64.47,64.47,0,0,1-7.16.78c-2.38.16-4.77.2-7.16.22s-4.77-.06-7.15-.22A67,67,0,0,1,513.65,208.49Z" style="fill:#fff"></path><path d="M390.14,221.38c5.08-.41,10.16-.63,15.24-.77s10.16-.21,15.23-.23,10.16.06,15.24.22,10.16.37,15.24.78c-5.08.42-10.16.64-15.24.78s-10.16.21-15.24.22-10.15-.06-15.23-.22S395.22,221.8,390.14,221.38Z" style="fill:#a6a6a6"></path><path d="M457.88,221.38c3.17-.41,6.33-.63,9.49-.77s6.32-.21,9.48-.23,6.32.06,9.48.22,6.33.37,9.49.78c-3.16.42-6.32.64-9.49.78s-6.32.21-9.48.22-6.32-.06-9.48-.22S461.05,221.8,457.88,221.38Z" style="fill:#a6a6a6"></path><path d="M515.61,221.38a51.09,51.09,0,0,1,6.36-.77c2.11-.16,4.23-.21,6.35-.23s4.24.06,6.35.22a53.08,53.08,0,0,1,6.36.78,49.3,49.3,0,0,1-6.36.78c-2.11.16-4.23.21-6.35.22s-4.24-.06-6.35-.22A51.12,51.12,0,0,1,515.61,221.38Z" style="fill:#a6a6a6"></path><path d="M520.48,234.28a33.67,33.67,0,0,1,5.13-.78c1.72-.15,3.43-.22,5.14-.22s3.43.07,5.14.22a32.77,32.77,0,0,1,5.14.78,35.3,35.3,0,0,1-5.14.78c-1.71.14-3.43.22-5.14.22s-3.42-.08-5.14-.22A35,35,0,0,1,520.48,234.28Z" style="fill:#a6a6a6"></path><path d="M525.29,247.17a20.22,20.22,0,0,1,3.93-.77,34.7,34.7,0,0,1,3.94-.23,37,37,0,0,1,3.93.22,21.13,21.13,0,0,1,3.94.78,19.63,19.63,0,0,1-3.94.78,32.36,32.36,0,0,1-3.93.22,34.69,34.69,0,0,1-3.94-.22A20.25,20.25,0,0,1,525.29,247.17Z" style="fill:#a6a6a6"></path><path d="M515.61,260.07a51.12,51.12,0,0,1,6.36-.78c2.11-.16,4.23-.2,6.35-.22s4.24.06,6.35.22a49.3,49.3,0,0,1,6.36.78,53.08,53.08,0,0,1-6.36.78c-2.11.16-4.23.2-6.35.22s-4.24-.07-6.35-.23A51.09,51.09,0,0,1,515.61,260.07Z" style="fill:#a6a6a6"></path><path d="M520.48,273a35,35,0,0,1,5.13-.78c1.72-.14,3.43-.22,5.14-.22s3.43.08,5.14.22A35.3,35.3,0,0,1,541,273a32.77,32.77,0,0,1-5.14.78c-1.71.15-3.43.23-5.14.22s-3.42-.08-5.14-.22A33.67,33.67,0,0,1,520.48,273Z" style="fill:#a6a6a6"></path><path d="M515.61,285.86a51.12,51.12,0,0,1,6.36-.78c2.11-.16,4.23-.2,6.35-.22s4.24.06,6.35.22a49.3,49.3,0,0,1,6.36.78,53.08,53.08,0,0,1-6.36.78c-2.11.16-4.23.2-6.35.22s-4.24-.07-6.35-.23A51.09,51.09,0,0,1,515.61,285.86Z" style="fill:#a6a6a6"></path><path d="M390.14,234.28q8.48-.59,16.94-.78c5.64-.16,11.29-.2,16.93-.22s11.29.06,16.94.22,11.29.39,16.93.78q-8.46.58-16.93.78c-5.65.16-11.29.2-16.94.22s-11.29-.06-16.93-.22S395.79,234.66,390.14,234.28Z" style="fill:#a6a6a6"></path><path d="M390.14,247.17q11.26-.57,22.54-.77c7.51-.16,15-.21,22.54-.23s15,.06,22.53.22,15,.39,22.54.78q-11.27.59-22.54.78c-7.51.16-15,.2-22.53.22s-15-.06-22.54-.22S397.65,247.56,390.14,247.17Z" style="fill:#a6a6a6"></path><path d="M390.14,260.07c5.08-.42,10.16-.63,15.24-.78s10.16-.2,15.23-.22,10.16.06,15.24.22,10.16.36,15.24.78c-5.08.41-10.16.63-15.24.78s-10.16.2-15.24.22-10.15-.07-15.23-.23S395.22,260.48,390.14,260.07Z" style="fill:#a6a6a6"></path><path d="M390.14,273q9.42-.58,18.85-.78c6.28-.16,12.56-.2,18.84-.22s12.57.06,18.85.22,12.56.39,18.84.78q-9.42.59-18.84.78c-6.28.16-12.57.2-18.85.22s-12.56-.06-18.84-.22S396.42,273.35,390.14,273Z" style="fill:#a6a6a6"></path><path d="M390.14,285.86a75.71,75.71,0,0,1,7.77-.78c2.59-.16,5.18-.2,7.76-.22s5.18.06,7.77.22a73,73,0,0,1,7.77.78c-2.59.41-5.18.63-7.77.78s-5.18.2-7.77.22-5.17-.07-7.76-.23A75.68,75.68,0,0,1,390.14,285.86Z" style="fill:#a6a6a6"></path><path d="M390.14,311.64q13.55-.57,27.08-.77c9-.16,18.06-.2,27.09-.22s18.05.06,27.08.21,18.06.4,27.08.78q-13.53.58-27.08.78c-9,.16-18.06.21-27.08.22s-18.06-.06-27.09-.22S399.17,312,390.14,311.64Z" style="fill:#fff"></path><path d="M513.65,311.64a64.44,64.44,0,0,1,7.16-.77c2.38-.16,4.77-.2,7.15-.22s4.78.06,7.16.21a67,67,0,0,1,7.16.78,62.17,62.17,0,0,1-7.16.78c-2.38.16-4.77.21-7.16.22s-4.77-.06-7.15-.22A64.47,64.47,0,0,1,513.65,311.64Z" style="fill:#fff"></path><path d="M390.14,324.54c5.08-.41,10.16-.63,15.24-.78s10.16-.2,15.23-.22,10.16.06,15.24.22,10.16.36,15.24.78c-5.08.42-10.16.63-15.24.78s-10.16.2-15.24.22-10.15-.06-15.23-.22S395.22,325,390.14,324.54Z" style="fill:#a6a6a6"></path><path d="M457.88,324.54c3.17-.41,6.33-.63,9.49-.78s6.32-.2,9.48-.22,6.32.06,9.48.22,6.33.36,9.49.78c-3.16.42-6.32.63-9.49.78s-6.32.2-9.48.22-6.32-.06-9.48-.22S461.05,325,457.88,324.54Z" style="fill:#a6a6a6"></path><path d="M515.61,324.54a53.08,53.08,0,0,1,6.36-.78c2.11-.16,4.23-.2,6.35-.22s4.24.06,6.35.22a51.12,51.12,0,0,1,6.36.78,51.12,51.12,0,0,1-6.36.78c-2.11.16-4.23.2-6.35.22s-4.24-.06-6.35-.22A53.08,53.08,0,0,1,515.61,324.54Z" style="fill:#a6a6a6"></path><path d="M520.48,337.43a33.64,33.64,0,0,1,5.13-.77c1.72-.15,3.43-.23,5.14-.23s3.43.08,5.14.22a35.3,35.3,0,0,1,5.14.78,32.77,32.77,0,0,1-5.14.78c-1.71.15-3.43.23-5.14.22s-3.42-.07-5.14-.22A33.67,33.67,0,0,1,520.48,337.43Z" style="fill:#a6a6a6"></path><path d="M390.14,337.43q8.48-.57,16.94-.77c5.64-.16,11.29-.21,16.93-.23s11.29.06,16.94.22,11.29.39,16.93.78q-8.46.58-16.93.78c-5.65.16-11.29.21-16.94.22s-11.29-.06-16.93-.22S395.79,337.82,390.14,337.43Z" style="fill:#a6a6a6"></path><path d="M210.85,205.84l64.54-.19c21.51.07,43,0,64.54.19-21.51.16-43,.12-64.54.18Z" style="fill:#dbdbdb"></path><path d="M210.85,211.53l64.54-.18c21.51.06,43,0,64.54.18-21.51.16-43,.12-64.54.19Z" style="fill:#dbdbdb"></path><path d="M210.85,217.22l64.54-.18c21.51.06,43,0,64.54.18-21.51.16-43,.12-64.54.19Z" style="fill:#dbdbdb"></path><path d="M210.85,222.92l64.54-.19c21.51.07,43,0,64.54.19-21.51.16-43,.12-64.54.18Z" style="fill:#dbdbdb"></path><path d="M210.85,228.61l64.54-.18c21.51.06,43,0,64.54.18-21.51.16-43,.12-64.54.19Z" style="fill:#dbdbdb"></path><path d="M210.85,234.3l64.54-.18c21.51.07,43,0,64.54.18-21.51.16-43,.12-64.54.19Z" style="fill:#dbdbdb"></path><path d="M210.85,240l64.54-.19c21.51.07,43,0,64.54.19-21.51.16-43,.12-64.54.18Z" style="fill:#dbdbdb"></path><path d="M210.85,245.69l64.54-.18c21.51.06,43,0,64.54.18-21.51.16-43,.12-64.54.19Z" style="fill:#dbdbdb"></path><path d="M210.85,251.39l64.54-.19c21.51.07,43,0,64.54.19-21.51.16-43,.11-64.54.18Z" style="fill:#dbdbdb"></path><path d="M210.85,257.08l64.54-.19c21.51.07,43,0,64.54.19-21.51.16-43,.12-64.54.18Z" style="fill:#dbdbdb"></path><path d="M210.85,262.77l64.54-.18c21.51.06,43,0,64.54.18-21.51.16-43,.12-64.54.19Z" style="fill:#dbdbdb"></path><path d="M210.85,268.47l64.54-.19c21.51.07,43,0,64.54.19-21.51.16-43,.11-64.54.18Z" style="fill:#dbdbdb"></path><path d="M210.85,274.16l64.54-.19c21.51.07,43,0,64.54.19-21.51.16-43,.12-64.54.18Z" style="fill:#dbdbdb"></path><path d="M210.85,279.85l64.54-.18c21.51.06,43,0,64.54.18-21.51.16-43,.12-64.54.19Z" style="fill:#dbdbdb"></path><path d="M210.85,285.55l64.54-.19c21.51.07,43,0,64.54.19-21.51.16-43,.12-64.54.18Z" style="fill:#dbdbdb"></path><rect x="224.5" y="245.69" width="9.79" height="46.49" style="fill:#CFD8DC"></rect><rect x="242.66" y="226.03" width="9.79" height="66.16" style="fill:#dbdbdb"></rect><rect x="260.82" y="240.2" width="9.79" height="51.99" style="fill:#a6a6a6"></rect><rect x="278.98" y="222.92" width="9.79" height="69.27" style="fill:#CFD8DC"></rect><rect x="297.13" y="232.21" width="9.79" height="59.98" style="fill:#dbdbdb"></rect><rect x="315.29" y="266.19" width="9.79" height="25.99" style="fill:#a6a6a6"></rect><path d="M214.36,201.84l.26,22.59.19,22.58q.18,22.59.18,45.17l-.63-.68,31.39,0,31.39.08,31.4.22,31.39.41-31.39.41-31.4.23-31.39.08-31.39,0h-.64v-.69q0-22.57.19-45.17l.18-22.58Z" style="fill:#dbdbdb"></path><rect x="224.5" y="296.96" width="9.79" height="0.96" style="fill:#dbdbdb"></rect><rect x="242.66" y="296.96" width="9.79" height="0.96" style="fill:#dbdbdb"></rect><rect x="260.82" y="296.96" width="9.79" height="0.96" style="fill:#dbdbdb"></rect><rect x="278.98" y="296.96" width="9.79" height="0.96" style="fill:#dbdbdb"></rect><rect x="297.13" y="296.96" width="9.79" height="0.96" style="fill:#dbdbdb"></rect><rect x="315.29" y="296.96" width="9.79" height="0.96" style="fill:#dbdbdb"></rect><rect x="214.59" y="308.87" width="5.42" height="5.42" style="fill:#CFD8DC"></rect><rect x="214.59" y="321.83" width="5.42" height="5.42" style="fill:#dbdbdb"></rect><rect x="214.59" y="334.79" width="5.42" height="5.42" style="fill:#a6a6a6"></rect><path d="M225.53,309.79c3.44-.41,6.88-.63,10.33-.78s6.89-.2,10.33-.22,6.89.06,10.33.22,6.89.37,10.33.78c-3.44.42-6.89.64-10.33.78s-6.89.2-10.33.22-6.89-.06-10.33-.22S229,310.21,225.53,309.79Z" style="fill:#a6a6a6"></path><path d="M225.53,313.37a60.3,60.3,0,0,1,6.92-.78c2.31-.16,4.61-.2,6.92-.22s4.62.06,6.92.22a58.31,58.31,0,0,1,6.93.78,62.79,62.79,0,0,1-6.93.78c-2.3.16-4.61.2-6.92.22s-4.61-.06-6.92-.22A62.61,62.61,0,0,1,225.53,313.37Z" style="fill:#a6a6a6"></path><path d="M225.53,322.75a29.6,29.6,0,0,1,4.72-.78c1.57-.14,3.14-.22,4.71-.22s3.15.08,4.72.22a28.69,28.69,0,0,1,4.72.78,28.69,28.69,0,0,1-4.72.78,46.46,46.46,0,0,1-4.72.22c-1.57,0-3.14-.08-4.71-.22A29.6,29.6,0,0,1,225.53,322.75Z" style="fill:#a6a6a6"></path><path d="M225.53,326.33a79.21,79.21,0,0,1,7.95-.78c2.65-.16,5.31-.2,8-.22s5.3.06,7.95.22a76.57,76.57,0,0,1,8,.78c-2.65.41-5.31.63-8,.78s-5.3.2-7.95.22-5.31-.07-8-.23A79.18,79.18,0,0,1,225.53,326.33Z" style="fill:#a6a6a6"></path><path d="M225.53,335.71c2.84-.41,5.69-.63,8.53-.78s5.69-.2,8.54-.22,5.69.06,8.53.22,5.69.36,8.54.78c-2.85.42-5.69.63-8.54.78s-5.69.2-8.53.22-5.69-.06-8.54-.22S228.37,336.12,225.53,335.71Z" style="fill:#a6a6a6"></path><path d="M225.53,339.29c3.72-.42,7.44-.63,11.16-.78s7.43-.2,11.15-.22,7.44.06,11.16.22,7.44.36,11.16.78c-3.72.41-7.44.63-11.16.78s-7.44.2-11.16.21-7.44-.06-11.15-.22S229.25,339.7,225.53,339.29Z" style="fill:#a6a6a6"></path><rect x="178.22" y="78.99" width="412.21" height="261" style="fill:#fff"></rect><path d="M590.68,340.24H178V78.74H590.68Zm-412.21-.5H590.18V79.24H178.47Z" style="fill:#263238"></path><rect x="178.22" y="78.99" width="412.21" height="10.04" style="fill:#455a64"></rect><path d="M186.41,84a2.13,2.13,0,1,1-2.12-2.12A2.12,2.12,0,0,1,186.41,84Z" style="fill:#c7c7c7"></path><path d="M195.09,84A2.13,2.13,0,1,1,193,81.89,2.12,2.12,0,0,1,195.09,84Z" style="fill:#fff"></path><circle cx="201.64" cy="84.01" r="2.13" style="fill:#CFD8DC"></circle><rect x="178.22" y="89.03" width="412.21" height="23.79" style="fill:#CFD8DC"></rect><rect x="178.22" y="112.82" width="412.21" height="16.87" style="fill:#ebebeb"></rect><rect x="183.12" y="94.34" width="7.99" height="7.99" style="fill:#fff"></rect><rect x="197.4" y="94.34" width="84.85" height="3.99" style="fill:#fff"></rect><rect x="183.12" y="115.26" width="7.99" height="7.99" style="fill:#dbdbdb"></rect><rect x="186.84" y="119.26" width="7.99" height="7.99" style="fill:#fff"></rect><rect x="210.26" y="115.26" width="84.85" height="3.99" style="fill:#fff"></rect><rect x="210.26" y="123.25" width="16.7" height="3.99" style="fill:#fff"></rect><rect x="232.98" y="123.25" width="16.7" height="3.99" style="fill:#fff"></rect><rect x="255.69" y="123.25" width="16.7" height="3.99" style="fill:#fff"></rect><rect x="278.41" y="123.25" width="16.7" height="3.99" style="fill:#fff"></rect><rect x="301.22" y="115.26" width="9.14" height="3.99" style="fill:#fff"></rect><rect x="301.22" y="123.25" width="9.14" height="3.99" style="fill:#fff"></rect><rect x="317.93" y="115.26" width="4.57" height="3.99" style="fill:#dbdbdb"></rect><rect x="317.93" y="123.25" width="4.57" height="3.99" style="fill:#dbdbdb"></rect><rect x="325.71" y="115.26" width="8.95" height="3.99" style="fill:#dbdbdb"></rect><rect x="325.71" y="123.25" width="8.95" height="3.99" style="fill:#dbdbdb"></rect><rect x="338.94" y="115.26" width="65.45" height="3.99" style="fill:#dbdbdb"></rect><rect x="338.94" y="123.25" width="65.45" height="3.99" style="fill:#dbdbdb"></rect><rect x="410.45" y="115.26" width="11.98" height="11.98" style="fill:#fff"></rect><rect x="428.81" y="115.26" width="11.98" height="11.98" style="fill:#fff"></rect><rect x="447.18" y="115.26" width="11.98" height="11.98" style="fill:#fff"></rect><rect x="465.55" y="115.26" width="11.98" height="11.98" style="fill:#fff"></rect><rect x="483.91" y="115.26" width="11.98" height="11.98" style="fill:#fff"></rect><rect x="570.56" y="115.26" width="11.98" height="2.36" style="fill:#fff"></rect><rect x="570.56" y="120.08" width="11.98" height="2.36" style="fill:#fff"></rect><rect x="570.56" y="124.89" width="11.98" height="2.36" style="fill:#fff"></rect><rect x="232.98" y="181.27" width="167.46" height="12.89" style="fill:#CFD8DC"></rect><rect x="358.57" y="181.27" width="41.86" height="12.89" style="fill:#fff;opacity:0.30000000000000004"></rect><rect x="232.98" y="194.16" width="167.46" height="77.37" style="fill:#dbdbdb"></rect><rect x="358.57" y="194.16" width="41.86" height="77.37" style="fill:#ebebeb"></rect><rect x="232.98" y="284.42" width="167.46" height="12.89" style="fill:#CFD8DC"></rect><rect x="358.57" y="284.42" width="41.86" height="12.89" style="opacity:0.1"></rect><rect x="232.98" y="297.32" width="167.46" height="25.79" style="fill:#CFD8DC;opacity:0.5"></rect><rect x="358.57" y="297.32" width="41.86" height="25.79" style="fill:#CFD8DC"></rect><rect x="178.22" y="129.69" width="12.89" height="210.3" style="fill:#CFD8DC;opacity:0.5"></rect><rect x="384.32" y="-63.52" width="12.89" height="399.31" transform="translate(254.63 526.91) rotate(-90)" style="fill:#CFD8DC;opacity:0.5"></rect><path d="M191.11,129.69a49.84,49.84,0,0,1,.38,6.45,48.12,48.12,0,0,1-.38,6.45,56.4,56.4,0,0,1,0-12.9Z" style="fill:#CFD8DC"></path><path d="M233,129.69a56.4,56.4,0,0,1,0,12.9,54.93,54.93,0,0,1,0-12.9Z" style="fill:#CFD8DC"></path><path d="M274.84,129.69a49.84,49.84,0,0,1,.38,6.45,48.12,48.12,0,0,1-.38,6.45,48.11,48.11,0,0,1-.37-6.45A49.82,49.82,0,0,1,274.84,129.69Z" style="fill:#CFD8DC"></path><path d="M316.71,129.69a56.4,56.4,0,0,1,0,12.9,54.93,54.93,0,0,1,0-12.9Z" style="fill:#CFD8DC"></path><path d="M358.57,129.69a49.84,49.84,0,0,1,.38,6.45,48.12,48.12,0,0,1-.38,6.45,48.11,48.11,0,0,1-.37-6.45A49.82,49.82,0,0,1,358.57,129.69Z" style="fill:#CFD8DC"></path><path d="M400.44,129.69a56.4,56.4,0,0,1,0,12.9,54.93,54.93,0,0,1,0-12.9Z" style="fill:#CFD8DC"></path><path d="M442.3,129.69a49.84,49.84,0,0,1,.38,6.45,48.12,48.12,0,0,1-.38,6.45,48.11,48.11,0,0,1-.37-6.45A49.82,49.82,0,0,1,442.3,129.69Z" style="fill:#CFD8DC"></path><path d="M484.17,129.69a56.4,56.4,0,0,1,0,12.9,54.93,54.93,0,0,1,0-12.9Z" style="fill:#CFD8DC"></path><path d="M526,129.69a54.93,54.93,0,0,1,0,12.9,48.11,48.11,0,0,1-.37-6.45A49.82,49.82,0,0,1,526,129.69Z" style="fill:#CFD8DC"></path><path d="M567.9,129.69a56.4,56.4,0,0,1,0,12.9,54.93,54.93,0,0,1,0-12.9Z" style="fill:#CFD8DC"></path><path d="M178.22,142.59a54.85,54.85,0,0,1,12.89,0,56.32,56.32,0,0,1-12.89,0Z" style="fill:#CFD8DC"></path><path d="M178.22,155.48a49.77,49.77,0,0,1,6.44-.37,48.11,48.11,0,0,1,6.45.37,48.11,48.11,0,0,1-6.45.37A49.77,49.77,0,0,1,178.22,155.48Z" style="fill:#CFD8DC"></path><path d="M178.22,168.37a56.32,56.32,0,0,1,12.89,0,54.85,54.85,0,0,1-12.89,0Z" style="fill:#CFD8DC"></path><path d="M178.22,181.27a49.79,49.79,0,0,1,6.44-.38,48.12,48.12,0,0,1,6.45.38,48.11,48.11,0,0,1-6.45.37A49.77,49.77,0,0,1,178.22,181.27Z" style="fill:#CFD8DC"></path><path d="M178.22,194.16a56.32,56.32,0,0,1,12.89,0,54.85,54.85,0,0,1-12.89,0Z" style="fill:#CFD8DC"></path><path d="M178.22,207.06a54.85,54.85,0,0,1,12.89,0,56.32,56.32,0,0,1-12.89,0Z" style="fill:#CFD8DC"></path><path d="M178.22,220a56.32,56.32,0,0,1,12.89,0,48.12,48.12,0,0,1-6.45.38A49.79,49.79,0,0,1,178.22,220Z" style="fill:#CFD8DC"></path><path d="M178.22,232.85a54.85,54.85,0,0,1,12.89,0,56.32,56.32,0,0,1-12.89,0Z" style="fill:#CFD8DC"></path><path d="M178.22,245.74a49.77,49.77,0,0,1,6.44-.37,48.11,48.11,0,0,1,6.45.37,54.85,54.85,0,0,1-12.89,0Z" style="fill:#CFD8DC"></path><path d="M178.22,258.64a54.85,54.85,0,0,1,12.89,0,56.32,56.32,0,0,1-12.89,0Z" style="fill:#CFD8DC"></path><path d="M178.22,271.53a54.85,54.85,0,0,1,12.89,0,48.11,48.11,0,0,1-6.45.37A49.77,49.77,0,0,1,178.22,271.53Z" style="fill:#CFD8DC"></path><path d="M178.22,284.42a56.32,56.32,0,0,1,12.89,0,54.85,54.85,0,0,1-12.89,0Z" style="fill:#CFD8DC"></path><path d="M178.22,297.32a49.79,49.79,0,0,1,6.44-.38,48.12,48.12,0,0,1,6.45.38,48.11,48.11,0,0,1-6.45.37A49.77,49.77,0,0,1,178.22,297.32Z" style="fill:#CFD8DC"></path><path d="M178.22,310.21a56.32,56.32,0,0,1,12.89,0,54.85,54.85,0,0,1-12.89,0Z" style="fill:#CFD8DC"></path><path d="M178.22,323.11a54.85,54.85,0,0,1,12.89,0,56.32,56.32,0,0,1-12.89,0Z" style="fill:#CFD8DC"></path><path d="M178.22,336a49.77,49.77,0,0,1,6.44-.37,48.11,48.11,0,0,1,6.45.37,48.12,48.12,0,0,1-6.45.38A49.79,49.79,0,0,1,178.22,336Z" style="fill:#CFD8DC"></path><polygon points="232.98 142.59 233.16 167.26 233.22 191.94 233.35 241.29 233.23 290.64 233.16 315.31 232.98 339.99 232.79 315.31 232.73 290.64 232.6 241.29 232.73 191.94 232.79 167.26 232.98 142.59" style="fill:#ebebeb"></polygon><polygon points="274.84 142.59 275.02 167.26 275.09 191.94 275.22 241.29 275.09 290.64 275.02 315.31 274.84 339.99 274.66 315.31 274.59 290.64 274.47 241.29 274.59 191.94 274.66 167.26 274.84 142.59" style="fill:#ebebeb"></polygon><polygon points="316.71 142.59 316.89 167.26 316.95 191.94 317.08 241.29 316.96 290.64 316.89 315.31 316.71 339.99 316.52 315.31 316.46 290.64 316.33 241.29 316.46 191.94 316.52 167.26 316.71 142.59" style="fill:#ebebeb"></polygon><polygon points="358.57 142.59 358.75 167.26 358.82 191.94 358.94 241.29 358.82 290.64 358.75 315.31 358.57 339.99 358.39 315.31 358.32 290.64 358.2 241.29 358.32 191.94 358.39 167.26 358.57 142.59" style="fill:#ebebeb"></polygon><polygon points="400.44 142.59 400.62 167.26 400.68 191.94 400.81 241.29 400.69 290.64 400.62 315.31 400.44 339.99 400.25 315.31 400.19 290.64 400.06 241.29 400.19 191.94 400.25 167.26 400.44 142.59" style="fill:#ebebeb"></polygon><polygon points="442.3 142.59 442.48 167.26 442.55 191.94 442.68 241.29 442.55 290.64 442.48 315.31 442.3 339.99 442.12 315.31 442.05 290.64 441.93 241.29 442.05 191.94 442.12 167.26 442.3 142.59" style="fill:#ebebeb"></polygon><polygon points="484.17 142.59 484.35 167.26 484.41 191.94 484.54 241.29 484.42 290.64 484.35 315.31 484.17 339.99 483.98 315.31 483.92 290.64 483.79 241.29 483.92 191.94 483.98 167.26 484.17 142.59" style="fill:#ebebeb"></polygon><polygon points="526.03 142.59 526.21 167.26 526.28 191.94 526.4 241.29 526.28 290.64 526.21 315.31 526.03 339.99 525.85 315.31 525.78 290.64 525.66 241.29 525.78 191.94 525.85 167.26 526.03 142.59" style="fill:#ebebeb"></polygon><polygon points="567.89 142.59 568.08 167.26 568.14 191.94 568.27 241.29 568.14 290.64 568.08 315.31 567.89 339.99 567.71 315.31 567.65 290.64 567.52 241.29 567.65 191.94 567.71 167.26 567.89 142.59" style="fill:#ebebeb"></polygon><polygon points="190.96 142.59 240.89 142.4 290.82 142.34 390.69 142.21 490.56 142.34 540.49 142.4 590.43 142.59 540.49 142.77 490.56 142.84 390.69 142.96 290.82 142.83 240.89 142.77 190.96 142.59" style="fill:#ebebeb"></polygon><polygon points="190.96 155.48 240.89 155.3 290.82 155.23 390.69 155.11 490.56 155.23 540.49 155.3 590.43 155.48 540.49 155.66 490.56 155.73 390.69 155.85 290.82 155.73 240.89 155.66 190.96 155.48" style="fill:#ebebeb"></polygon><polygon points="190.96 168.37 240.89 168.19 290.82 168.13 390.69 168 490.56 168.13 540.49 168.19 590.43 168.37 540.49 168.56 490.56 168.62 390.69 168.75 290.82 168.62 240.89 168.56 190.96 168.37" style="fill:#ebebeb"></polygon><polygon points="190.96 181.27 240.89 181.09 290.82 181.02 390.69 180.9 490.56 181.02 540.49 181.09 590.43 181.27 540.49 181.45 490.56 181.52 390.69 181.64 290.82 181.52 240.89 181.45 190.96 181.27" style="fill:#ebebeb"></polygon><polygon points="190.96 194.16 240.89 193.98 290.82 193.91 390.69 193.79 490.56 193.91 540.49 193.98 590.43 194.16 540.49 194.35 490.56 194.41 390.69 194.54 290.82 194.41 240.89 194.34 190.96 194.16" style="fill:#ebebeb"></polygon><polygon points="190.96 207.06 240.89 206.88 290.82 206.81 390.69 206.68 490.56 206.81 540.49 206.87 590.43 207.06 540.49 207.24 490.56 207.31 390.69 207.43 290.82 207.31 240.89 207.24 190.96 207.06" style="fill:#ebebeb"></polygon><polygon points="190.96 219.95 240.89 219.77 290.82 219.7 390.69 219.58 490.56 219.7 540.49 219.77 590.43 219.95 540.49 220.13 490.56 220.2 390.69 220.33 290.82 220.2 240.89 220.13 190.96 219.95" style="fill:#ebebeb"></polygon><polygon points="190.96 232.85 240.89 232.66 290.82 232.6 390.69 232.47 490.56 232.6 540.49 232.66 590.43 232.85 540.49 233.03 490.56 233.1 390.69 233.22 290.82 233.09 240.89 233.03 190.96 232.85" style="fill:#ebebeb"></polygon><polygon points="190.96 245.74 240.89 245.56 290.82 245.49 390.69 245.37 490.56 245.49 540.49 245.56 590.43 245.74 540.49 245.92 490.56 245.99 390.69 246.12 290.82 245.99 240.89 245.92 190.96 245.74" style="fill:#ebebeb"></polygon><polygon points="190.96 258.63 240.89 258.45 290.82 258.39 390.69 258.26 490.56 258.39 540.49 258.45 590.43 258.63 540.49 258.82 490.56 258.88 390.69 259.01 290.82 258.88 240.89 258.82 190.96 258.63" style="fill:#ebebeb"></polygon><polygon points="190.96 271.53 240.89 271.35 290.82 271.28 390.69 271.15 490.56 271.28 540.49 271.35 590.43 271.53 540.49 271.71 490.56 271.78 390.69 271.9 290.82 271.78 240.89 271.71 190.96 271.53" style="fill:#ebebeb"></polygon><polygon points="190.96 284.42 240.89 284.24 290.82 284.18 390.69 284.05 490.56 284.18 540.49 284.24 590.43 284.42 540.49 284.61 490.56 284.67 390.69 284.8 290.82 284.67 240.89 284.61 190.96 284.42" style="fill:#ebebeb"></polygon><polygon points="190.96 297.32 240.89 297.14 290.82 297.07 390.69 296.94 490.56 297.07 540.49 297.13 590.43 297.32 540.49 297.5 490.56 297.57 390.69 297.69 290.82 297.57 240.89 297.5 190.96 297.32" style="fill:#ebebeb"></polygon><polygon points="190.96 310.21 240.89 310.03 290.82 309.96 390.69 309.84 490.56 309.96 540.49 310.03 590.43 310.21 540.49 310.4 490.56 310.46 390.69 310.59 290.82 310.46 240.89 310.39 190.96 310.21" style="fill:#ebebeb"></polygon><polygon points="190.96 323.11 240.89 322.93 290.82 322.86 390.69 322.73 490.56 322.86 540.49 322.92 590.43 323.11 540.49 323.29 490.56 323.36 390.69 323.48 290.82 323.36 240.89 323.29 190.96 323.11" style="fill:#ebebeb"></polygon><polygon points="190.96 336 240.89 335.82 290.82 335.75 390.69 335.63 490.56 335.75 540.49 335.82 590.43 336 540.49 336.19 490.56 336.25 390.69 336.38 290.82 336.25 240.89 336.18 190.96 336" style="fill:#ebebeb"></polygon><rect x="377.8" y="-44.18" width="25.79" height="399.31" transform="translate(235.21 546.17) rotate(-90)" style="fill:#CFD8DC"></rect><path d="M294.69,152.36c8-.23,16-.32,24-.49l24-.28c16-.16,32-.15,48-.23,16,.08,32,.07,48,.23l24,.28c8,.16,16,.26,24,.49-8,.22-16,.32-24,.49l-24,.28c-16,.16-32,.15-48,.23-16-.09-32-.07-48-.24l-24-.27C310.7,152.68,302.69,152.58,294.69,152.36Z" style="fill:#fff"></path><path d="M313.05,158.6c6.48-.22,12.95-.32,19.43-.49l19.43-.27c12.95-.17,25.91-.15,38.86-.24,13,.08,25.9.07,38.86.23l19.43.28c6.47.17,12.95.27,19.43.49-6.48.23-13,.33-19.43.49l-19.43.28c-13,.16-25.91.15-38.86.23-12.95-.08-25.91-.07-38.86-.23l-19.43-.28C326,158.92,319.53,158.83,313.05,158.6Z" style="fill:#fff"></path><path d="M241.33,187.72q13.53-.58,27.08-.78c9-.16,18-.2,27.08-.22s18.06.06,27.08.22,18.06.39,27.09.78q-13.55.57-27.09.78c-9,.16-18.05.2-27.08.22s-18.05-.07-27.08-.23S250.35,188.1,241.33,187.72Z" style="fill:#fff"></path><path d="M364.84,187.72a64.29,64.29,0,0,1,7.15-.78c2.39-.16,4.77-.2,7.16-.22s4.77.06,7.15.22a61.93,61.93,0,0,1,7.16.78,66.67,66.67,0,0,1-7.16.78c-2.38.16-4.77.2-7.15.22s-4.77-.07-7.16-.23A64.27,64.27,0,0,1,364.84,187.72Z" style="fill:#fff"></path><path d="M241.33,200.61c5.07-.41,10.15-.63,15.23-.78s10.16-.2,15.24-.22,10.16.06,15.24.22,10.15.36,15.23.78c-5.08.42-10.16.63-15.23.78s-10.16.2-15.24.22-10.16-.06-15.24-.22S246.4,201,241.33,200.61Z" style="fill:#a6a6a6"></path><path d="M309.07,200.61c3.16-.41,6.32-.63,9.48-.78s6.32-.2,9.49-.22,6.32.06,9.48.22,6.32.36,9.48.78c-3.16.42-6.32.63-9.48.78s-6.32.2-9.48.22-6.33-.06-9.49-.22S312.23,201,309.07,200.61Z" style="fill:#a6a6a6"></path><path d="M366.8,200.61a52.67,52.67,0,0,1,6.35-.78c2.12-.16,4.24-.2,6.35-.22s4.24.06,6.36.22a51.19,51.19,0,0,1,6.35.78,51.19,51.19,0,0,1-6.35.78c-2.12.16-4.24.2-6.36.22s-4.23-.06-6.35-.22A52.67,52.67,0,0,1,366.8,200.61Z" style="fill:#a6a6a6"></path><path d="M371.66,213.5a33.77,33.77,0,0,1,5.14-.77c1.71-.15,3.42-.23,5.14-.22s3.42.07,5.13.21a34.89,34.89,0,0,1,5.14.78,33.64,33.64,0,0,1-5.14.79c-1.71.14-3.42.22-5.13.21s-3.43-.07-5.14-.22A32.6,32.6,0,0,1,371.66,213.5Z" style="fill:#a6a6a6"></path><path d="M376.47,226.4a21,21,0,0,1,3.94-.78,37,37,0,0,1,3.93-.22,32.64,32.64,0,0,1,3.94.22,20.25,20.25,0,0,1,3.93.78,20.25,20.25,0,0,1-3.93.78,35.3,35.3,0,0,1-7.87,0A21,21,0,0,1,376.47,226.4Z" style="fill:#a6a6a6"></path><path d="M366.8,239.29a50.71,50.71,0,0,1,6.35-.77c2.12-.16,4.24-.21,6.35-.23s4.24.06,6.36.22a53.17,53.17,0,0,1,6.35.78,49.36,49.36,0,0,1-6.35.78c-2.12.16-4.24.21-6.36.22s-4.23-.06-6.35-.22A50.73,50.73,0,0,1,366.8,239.29Z" style="fill:#a6a6a6"></path><path d="M371.66,252.19a33.8,33.8,0,0,1,5.14-.78c1.71-.15,3.42-.22,5.14-.22s3.42.07,5.13.22a32.42,32.42,0,0,1,5.14.78,34.89,34.89,0,0,1-5.14.78c-1.71.14-3.42.22-5.13.22s-3.43-.08-5.14-.22A35.1,35.1,0,0,1,371.66,252.19Z" style="fill:#a6a6a6"></path><path d="M366.8,265.08a50.71,50.71,0,0,1,6.35-.77c2.12-.16,4.24-.21,6.35-.23s4.24.06,6.36.22a53.17,53.17,0,0,1,6.35.78,49.36,49.36,0,0,1-6.35.78c-2.12.16-4.24.2-6.36.22s-4.23-.06-6.35-.22A50.73,50.73,0,0,1,366.8,265.08Z" style="fill:#a6a6a6"></path><path d="M241.33,213.5q8.46-.57,16.93-.77c5.65-.16,11.29-.2,16.94-.22s11.29.06,16.93.21,11.29.4,16.94.78q-8.47.58-16.94.79c-5.64.15-11.29.2-16.93.21s-11.29-.06-16.94-.22S247,213.89,241.33,213.5Z" style="fill:#a6a6a6"></path><path d="M241.33,226.4q11.26-.59,22.53-.78c7.52-.16,15-.2,22.54-.22s15,.06,22.54.22,15,.39,22.53.78q-11.27.58-22.53.78c-7.52.16-15,.2-22.54.22s-15-.06-22.54-.22S248.84,226.79,241.33,226.4Z" style="fill:#a6a6a6"></path><path d="M241.33,239.29c5.07-.41,10.15-.63,15.23-.77s10.16-.21,15.24-.23,10.16.06,15.24.22,10.15.37,15.23.78c-5.08.42-10.16.64-15.23.78s-10.16.21-15.24.22-10.16-.06-15.24-.22S246.4,239.71,241.33,239.29Z" style="fill:#a6a6a6"></path><path d="M241.33,252.19q9.42-.58,18.84-.78c6.28-.16,12.56-.2,18.85-.22s12.56.06,18.84.22,12.56.39,18.85.78q-9.43.59-18.85.78c-6.28.16-12.56.2-18.84.22s-12.57-.07-18.85-.22S247.61,252.57,241.33,252.19Z" style="fill:#a6a6a6"></path><path d="M241.33,265.08a75.22,75.22,0,0,1,7.76-.77c2.59-.16,5.18-.21,7.77-.23s5.18.06,7.77.22,5.17.37,7.76.78a73.09,73.09,0,0,1-7.76.78c-2.59.16-5.18.2-7.77.22s-5.18-.06-7.77-.22A75.24,75.24,0,0,1,241.33,265.08Z" style="fill:#a6a6a6"></path><path d="M241.33,290.87q13.53-.58,27.08-.78c9-.16,18-.2,27.08-.22s18.06.06,27.08.22,18.06.39,27.09.78q-13.55.58-27.09.78c-9,.16-18.05.2-27.08.22s-18.05-.06-27.08-.22S250.35,291.26,241.33,290.87Z" style="fill:#fff"></path><path d="M364.84,290.87a66.76,66.76,0,0,1,7.15-.78c2.39-.16,4.77-.2,7.16-.22s4.77.06,7.15.22a64.21,64.21,0,0,1,7.16.78,64.21,64.21,0,0,1-7.16.78c-2.38.16-4.77.2-7.15.22s-4.77-.06-7.16-.22A66.76,66.76,0,0,1,364.84,290.87Z" style="fill:#fff"></path><path d="M241.33,303.77c5.07-.42,10.15-.63,15.23-.78s10.16-.2,15.24-.22,10.16.06,15.24.22,10.15.36,15.23.78c-5.08.41-10.16.63-15.23.78s-10.16.2-15.24.21-10.16-.06-15.24-.22S246.4,304.18,241.33,303.77Z" style="fill:#a6a6a6"></path><path d="M309.07,303.77c3.16-.42,6.32-.63,9.48-.78s6.32-.2,9.49-.22,6.32.06,9.48.22,6.32.36,9.48.78c-3.16.41-6.32.63-9.48.78s-6.32.2-9.48.21-6.33-.06-9.49-.22S312.23,304.18,309.07,303.77Z" style="fill:#a6a6a6"></path><path d="M366.8,303.77a50.73,50.73,0,0,1,6.35-.78c2.12-.16,4.24-.2,6.35-.22s4.24.06,6.36.22a49.36,49.36,0,0,1,6.35.78,53.17,53.17,0,0,1-6.35.78c-2.12.15-4.24.2-6.36.21s-4.23-.06-6.35-.22A50.71,50.71,0,0,1,366.8,303.77Z" style="fill:#a6a6a6"></path><path d="M371.66,316.66a35.1,35.1,0,0,1,5.14-.78c1.71-.14,3.42-.22,5.14-.22s3.42.07,5.13.22a33.61,33.61,0,0,1,5.14.78,33.61,33.61,0,0,1-5.14.78c-1.71.15-3.42.23-5.13.22s-3.43-.08-5.14-.22A35.1,35.1,0,0,1,371.66,316.66Z" style="fill:#a6a6a6"></path><path d="M241.33,316.66q8.46-.59,16.93-.78c5.65-.16,11.29-.2,16.94-.22s11.29.06,16.93.22,11.29.39,16.94.78q-8.47.58-16.94.78c-5.64.16-11.29.2-16.93.22s-11.29-.06-16.94-.22S247,317.05,241.33,316.66Z" style="fill:#a6a6a6"></path><path d="M526,235.54a38.68,38.68,0,0,1-23.54,35.57l-15.11-35.57Z" style="fill:#CFD8DC"></path><path d="M480.91,232.88,496,268.46s0,0-.08,0c-1.18.49-2.37.93-3.55,1.3a38.66,38.66,0,1,1,27.17-36.91Z" style="fill:#a6a6a6"></path><path d="M480.93,232.88l-25.18,29.29a38.63,38.63,0,1,1,63.8-29.29Z" style="fill:#455a64"></path><rect x="442.3" y="288.2" width="5.42" height="5.42" style="fill:#455a64"></rect><rect x="442.3" y="301.16" width="5.42" height="5.42" style="fill:#a6a6a6"></rect><rect x="442.3" y="314.12" width="5.42" height="5.42" style="fill:#CFD8DC"></rect><path d="M453.24,289.12c3.45-.41,6.89-.63,10.33-.78s6.89-.2,10.33-.22,6.89.06,10.33.22,6.89.36,10.34.78c-3.45.42-6.89.63-10.34.78s-6.88.2-10.33.22-6.88-.06-10.33-.22S456.69,289.53,453.24,289.12Z" style="fill:#a6a6a6"></path><path d="M442.3,187.72c4.36-.42,8.71-.63,13.07-.78s8.71-.2,13.06-.22,8.71.06,13.07.22,8.71.36,13.07.78c-4.36.41-8.72.63-13.07.78s-8.71.2-13.07.22-8.71-.07-13.06-.23S446.66,188.13,442.3,187.72Z" style="fill:#a6a6a6"></path><path d="M442.3,184q9.19-.57,18.39-.77c6.13-.16,12.26-.21,18.4-.23s12.26.06,18.39.22,12.26.4,18.39.78q-9.19.58-18.39.78c-6.13.16-12.26.21-18.39.22s-12.27-.06-18.4-.22S448.43,184.35,442.3,184Z" style="fill:#a6a6a6"></path><path d="M453.24,292.7a60.55,60.55,0,0,1,6.92-.78c2.31-.16,4.62-.2,6.93-.22s4.61.06,6.92.22a58.15,58.15,0,0,1,6.92.78,62.61,62.61,0,0,1-6.92.78c-2.31.16-4.62.2-6.92.22s-4.62-.07-6.93-.23A60.52,60.52,0,0,1,453.24,292.7Z" style="fill:#a6a6a6"></path><path d="M453.24,302.08a29.79,29.79,0,0,1,4.72-.78c1.57-.14,3.14-.22,4.72-.22a46.73,46.73,0,0,1,4.72.22,28.57,28.57,0,0,1,4.71.78,28.57,28.57,0,0,1-4.71.78c-1.58.14-3.15.22-4.72.22s-3.15-.08-4.72-.22A29.79,29.79,0,0,1,453.24,302.08Z" style="fill:#a6a6a6"></path><path d="M453.24,305.66a76.3,76.3,0,0,1,8-.78c2.65-.16,5.3-.2,7.95-.22s5.3.06,8,.21a79.24,79.24,0,0,1,7.95.79c-2.65.41-5.3.63-7.95.78s-5.31.2-8,.21-5.3-.06-7.95-.22A79.09,79.09,0,0,1,453.24,305.66Z" style="fill:#a6a6a6"></path><path d="M453.24,315c2.85-.42,5.69-.63,8.54-.78s5.69-.2,8.53-.22,5.69.06,8.54.22,5.69.36,8.53.78c-2.84.41-5.69.63-8.53.78s-5.69.2-8.54.22-5.69-.07-8.53-.22S456.09,315.45,453.24,315Z" style="fill:#a6a6a6"></path><path d="M453.24,318.61c3.72-.41,7.44-.63,11.16-.77s7.44-.21,11.16-.23,7.43.06,11.15.22,7.44.37,11.16.78c-3.72.42-7.44.64-11.16.78s-7.43.21-11.15.22-7.44-.06-11.16-.22S457,319,453.24,318.61Z" style="fill:#a6a6a6"></path></g></svg>